<svg width="88" height="82" viewBox="0 0 88 82" fill="none" xmlns="http://www.w3.org/2000/svg">
<path d="M25.808 0.84C28.9653 0.84 31.824 1.352 34.384 2.376C36.944 3.48533 39.248 4.936 41.296 6.728C43.344 8.52 45.136 10.6107 46.672 13C48.208 15.3893 49.5307 17.9493 50.64 20.68C53.1147 18.4613 55.9307 16.4987 59.088 14.792C62.3307 13.1707 65.872 12.36 69.712 12.36C72.528 12.36 75.0453 12.9147 77.264 14.024C79.4827 15.1333 81.36 16.6267 82.896 18.504C84.5173 20.4667 85.712 22.728 86.48 25.288C87.3333 27.9333 87.76 30.7067 87.76 33.608C87.76 36.5093 87.3333 39.1973 86.48 41.672C85.6267 44.232 84.3893 46.408 82.768 48.2C81.232 50.0773 79.3547 51.528 77.136 52.552C74.9173 53.576 72.4853 54.088 69.84 54.088C65.3173 54.088 61.5627 52.936 58.576 50.632C55.5893 48.328 53.1573 45.2987 51.28 41.544L57.552 36.296C58.7467 38.5147 60.3253 40.264 62.288 41.544C64.2507 42.9093 66.5547 43.592 69.2 43.592C72.1867 43.592 74.6187 42.6107 76.496 40.648C78.3733 38.7707 79.312 36.3387 79.312 33.352C79.312 30.1093 78.416 27.592 76.624 25.8C74.832 24.008 72.4853 23.112 69.584 23.112C65.744 23.112 62.2027 24.1787 58.96 26.312C55.8027 28.4453 52.2187 31.5173 48.208 35.528L26.448 57.032C28.6667 58.4827 31.2267 59.848 34.128 61.128C37.1147 62.408 39.9733 63.5173 42.704 64.456L38.992 73.672C35.152 72.3067 31.568 70.7707 28.24 69.064C24.912 67.3573 21.968 65.6507 19.408 63.944L2 81.224V67.4L11.984 57.672C10.6187 56.4773 9.25333 54.984 7.888 53.192C6.608 51.4853 5.456 49.48 4.432 47.176C3.408 44.872 2.59733 42.2693 2 39.368C1.31733 36.552 0.976 33.4373 0.976 30.024C0.976 25.5867 1.57333 21.576 2.768 17.992C4.048 14.408 5.79733 11.336 8.016 8.776C10.2347 6.216 12.8373 4.25333 15.824 2.888C18.896 1.52267 22.224 0.84 25.808 0.84ZM26.064 11.848C20.688 11.848 16.592 13.5973 13.776 17.096C11.0453 20.68 9.68 25.416 9.68 31.304C9.68 33.096 9.89333 34.9307 10.32 36.808C10.7467 38.7707 11.344 40.648 12.112 42.44C12.9653 44.232 13.9467 45.8533 15.056 47.304C16.1653 48.84 17.4027 50.12 18.768 51.144L44.24 26.056C43.3013 24.1787 42.2347 22.3867 41.04 20.68C39.8453 18.9733 38.48 17.4373 36.944 16.072C35.4933 14.792 33.8293 13.768 31.952 13C30.16 12.232 28.1973 11.848 26.064 11.848Z" fill="white"/>
</svg>
